<svg width="1044" height="266" xmlns="http://www.w3.org/2000/svg" xmlns:xlink="http://www.w3.org/1999/xlink" overflow="hidden"><g transform="translate(-104 -210)"><rect x="104" y="211" width="302" height="264" fill="#4472C4"/><text fill="#FFFFFF" font-family="Calibri,Calibri_MSFontService,sans-serif" font-weight="400" font-size="24" transform="translate(240.908 350)">IS</text><text fill="#FFFFFF" font-family="Calibri,Calibri_MSFontService,sans-serif" font-weight="400" font-size="24" transform="translate(257.741 350)">T</text><rect x="845" y="211" width="302" height="264" fill="#4472C4"/><text fill="#FFFFFF" font-family="Calibri,Calibri_MSFontService,sans-serif" font-weight="400" font-size="24" transform="translate(972.627 350)">SOLL</text><path d="M515 304.667C515 292.701 524.701 283 536.667 283L733.333 283C745.299 283 755 292.701 755 304.667L755 391.333C755 403.299 745.299 413 733.333 413L536.667 413C524.701 413 515 403.299 515 391.333Z" fill="#4472C4" fill-rule="evenodd"/><text fill="#FFFFFF" font-family="Calibri,Calibri_MSFontService,sans-serif" font-weight="400" font-size="24" transform="translate(609.217 355)">CHAT</text><path d="M433 312 460.5 312 488 345 460.5 378 433 378 460.5 345Z" fill="#4472C4" fill-rule="evenodd"/><path d="M772 312 800 312 828 345 800 378 772 378 800 345Z" fill="#4472C4" fill-rule="evenodd"/></g></svg>